<?xml version="1.0" encoding="utf-8"?>
<!-- Generator: Adobe Illustrator 20.1.0, SVG Export Plug-In . SVG Version: 6.00 Build 0)  -->
<svg version="1.1" id="Layer_1" xmlns="http://www.w3.org/2000/svg" xmlns:xlink="http://www.w3.org/1999/xlink" x="0px" y="0px"
	 viewBox="0 0 388.4 600" width="254" height="393"
 style="enable-background:new 0 0 388.4 600;" xml:space="preserve">
<style type="text/css">
	.st0{fill:#6F5F5E;}
	.st1{fill:#FFD400;}
	.st2{fill:#FFFFFF;}
	.st3{fill:#DA2128;}
	.st4{fill:#58595B;}
</style>
<rect class="st0" width="388.4" height="502.2"/>
<rect y="0.1" class="st0" width="388.4" height="502.1"/>
<path class="st1" d="M161.5,201.7L161.5,201.7C161.5,201.7,161.5,201.7,161.5,201.7c-6.8-7-15-18.4-20.1-34.9c0,0-0.2-0.6-0.5-0.6
	c-0.3,0-0.6,0.7-0.6,0.7v0c-11.2,36.3-38.2,50.6-47.4,53.7c-0.5,0.2-0.5,0.6-0.5,0.8c4.7,12.8,11.8,24.4,20.7,34.4
	c0.2,0.1,0.5,0.3,1,0c28.9-16.5,45.4-48.7,47.6-53.2C161.9,202.2,161.7,201.9,161.5,201.7"/>
<path class="st1" d="M227.1,201.7L227.1,201.7C227.2,201.7,227.2,201.7,227.1,201.7c6.8-7,15-18.4,20.2-34.9c0,0,0.2-0.6,0.5-0.6
	c0.3,0,0.6,0.7,0.6,0.7v0c11.2,36.3,38.2,50.6,47.4,53.7c0.5,0.2,0.5,0.6,0.5,0.8c-4.7,12.8-11.8,24.4-20.7,34.4
	c-0.2,0.1-0.5,0.3-1,0c-29-16.5-45.4-48.7-47.6-53.2C226.8,202.2,227.1,201.9,227.1,201.7"/>
<path class="st1" d="M246.7,278.3L246.7,278.3c-40.9-39.8-51.7-110.9-51.7-110.9s-0.2-1.2-0.7-1.2c-0.5,0-0.7,1.2-0.7,1.2
	s-10.7,71.1-51.7,110.9c0,0-0.4,0.4,0,0.7c15.3,8.4,32.9,13.3,51.6,13.4h0.7h0.7c18.7-0.1,36.3-5,51.6-13.4
	C247.1,278.7,246.7,278.3,246.7,278.3"/>
<path class="st1" d="M251.1,91c-0.6-0.3-0.6,0.5-0.6,0.5c0.1,12.8,1.8,83.6,51.2,105.2c0.5,0.2,0.6-0.1,0.6-0.2
	c0.5-4.2,0.8-8.4,0.8-12.7C303,144.4,282.2,110.1,251.1,91"/>
<path class="st1" d="M137.7,91c0.6-0.3,0.6,0.5,0.6,0.5c-0.1,12.8-1.8,83.6-51.2,105.2c-0.4,0.2-0.6-0.1-0.6-0.2
	c-0.5-4.2-0.8-8.4-0.8-12.7C85.7,144.4,106.5,110.1,137.7,91"/>
<path class="st1" d="M244.5,87.3c-14.1-7.4-30-11.7-47-12.2c-0.5,0-0.4,0.6-0.4,0.6c0,21.6,3.5,72.1,20.3,106.2
	c0.1,0.4,0.4,0.2,0.6,0.2c0,0,0.1-0.1,0.1-0.1c1.7-1.8,27.8-30.5,26.8-93.9C244.9,87.6,244.6,87.3,244.5,87.3"/>
<path class="st1" d="M144.2,87.3c14.1-7.4,30.1-11.7,47-12.2c0.5,0,0.4,0.6,0.4,0.6c0,21.6-3.5,72.1-20.4,106.2
	c-0.1,0.4-0.5,0.2-0.5,0.2c-0.1,0-0.1-0.1-0.1-0.1c-1.7-1.8-27.8-30.5-26.8-93.9C143.8,87.6,144,87.3,144.2,87.3"/>
<path class="st2" d="M99.3,339.7h8c0,0,1.3,0.3,1.3,1.4v3.9h0.2c2.2-4.4,6.5-6.2,11.9-6.2v7.1v2.3c-0.7,0-1.3,0.1-1.8,0.1
	c-5.6,0.6-10.2,3.7-10.2,11.2v15.8c0,0,0.2,2.9-2.5,2.9h-6.8V339.7z"/>
<path class="st2" d="M294,339.7h7.9c0,0,1.4,0.3,1.4,1.4v3.9h0.1c2.2-4.4,6.5-6.2,11.9-6.2v7.1v2.3c-0.6,0-1.2,0.1-1.8,0.1
	c-5.6,0.6-10.2,3.7-10.2,11.2v15.8c0,0,0.2,2.9-2.5,2.9H294V339.7z"/>
<path class="st2" d="M160.8,341.5v35.1c0,0,0,1.5-1.4,1.5h-7.9v-3.8h-0.2c-2.1,2.7-5.8,4.7-11,4.7c-6.5,0-14.1-2.7-14.1-13.9v-25.5
	h7.9c0,0,1.4,0.2,1.4,1.8v21c0,5.3,2.1,7.6,6.9,7.6c7,0,9.1-5.1,9.1-9.8v-20.7h7.8C159.2,339.7,160.8,339.9,160.8,341.5"/>
<path class="st2" d="M169.9,339.7h7.7c0,0,1.6,0.2,1.6,1.7v2.1h0.2c2.7-3.3,6.8-4.7,10.5-4.7c9.1,0,13.2,4.6,13.2,13.1v24.9
	c0,0,0.1,1.5-1.3,1.5h-7.9v-23.5c0-3.5-1.6-6.9-6.4-6.9c-4.5,0-8.2,3-8.2,10.1v18.8c0,0,0,1.5-1.4,1.5h-7.9V339.7z"/>
<path class="st2" d="M228.7,347.3c-7,0-9,6.1-9.1,10.2c0.1,4.1,2.1,10.2,9.1,10.2c7,0,9.1-6.1,9.1-10.2
	C237.7,353.4,235.7,347.3,228.7,347.3 M246.8,341.4v36c0,10-8.2,15-18.6,15c-12.2,0-17.2-8.5-17.2-13.3h9.8c0.7,2.7,3.3,4.8,7.9,4.8
	c6,0,8.8-3.1,8.8-7.8v-4.1c-3,3.2-7.6,4.3-11,4.3c-9.6,0-16.7-7.1-16.7-18.7c0-11.6,7.1-18.7,16.7-18.7c5.6,0,8.6,1.9,10.8,4.6h0.2
	v-3.7h7.7C245.2,339.7,246.8,339.7,246.8,341.4"/>
<path class="st2" d="M286.1,346.9l-4.4,4.1l-0.9,0.8c-0.2-0.4-0.4-0.7-0.7-1.1c-1.5-2.2-4.4-4.3-9.1-4.3c-4.3-0.1-7,1.4-7,3.7
	c0,6.7,24.3,1,24.3,15.6c0,9.3-8.3,13.5-17.1,13.5c-8.4,0-14.4-2.6-17.9-6.1c-0.7-0.8,0.2-1.6,0.2-1.6l6.1-4.7
	c2.1,3.1,6.1,4.8,11.1,4.8c4.4,0,7.5-2.4,7.5-4.5c0-6.6-23.9-1.1-23.9-15.8c0-8.7,7.5-12.5,17.1-12.5c7.8,0,12.4,3.3,14.8,5.7
	C287.4,345.7,286.1,346.9,286.1,346.9"/>
<path class="st2" d="M320.8,339.7h7.9c0,0,1.4,0.1,1.4,1.5v35.4c0,0,0.2,1.5-1.4,1.5h-7.8V339.7z M330.1,325.3
	c0-1.2-1.6-1.3-1.6-1.3h-7.8v8.1c0,0-0.2,1.3,1.4,1.3h8V325.3z"/>
<path class="st2" d="M94.4,339.7h-10c-1.9,0-3.4,1.4-3.4,1.4l-13.2,13.1v-20.8c0-1.7-1.4-2.8-1.4-2.8l-7.9-6.5v54.2h7.7
	c1.8,0,1.6-2,1.6-2v-10.3c0-0.4,0.3-0.8,0.8-0.8c0.7,0,1.5,0.9,1.5,0.9l10.7,10.7c0,0,1.9,1.5,4.1,1.5h9.5L75,358.9L94.4,339.7z"/>
<path class="st2" d="M94.9,411.7c-1.3,0.3-2.4,0.8-3.4,1.4c-1,0.6-1.8,1.4-2.5,2.3c-0.7,1-1,2.2-1,3.6c0,0,0,2.2,0.8,3.6
	c0.6,1,1.6,2.1,2.5,2.8c0.9,0.7,2,1.3,3.1,1.9c1.1,0.5,2.1,1,3.1,1.6c0.9,0.6,1.7,1.2,2.4,1.9c0.6,0.7,0.9,1.6,0.9,2.6
	c0,0.8-0.4,1.5-1.2,2.1c-0.8,0.6-3.9,1.3-7.2,0.2c-0.8-0.3-4.1-1.9-4.1-1.9v5c1,0.5,1.8,0.9,2.7,1.2c0.9,0.3,2.9,0.9,5.3,0.9
	c3.3,0,5.7-0.8,7.3-2.4c1.5-1.6,2.4-3.6,2.4-6c0-1.1-0.2-2.1-0.7-2.9c-0.4-0.8-1-1.6-1.7-2.3c-0.7-0.7-1.4-1.3-2.3-1.8
	c-0.9-0.5-1.7-1-2.5-1.4c-0.7-0.4-1.4-0.7-2.1-1.1c-0.7-0.3-1.3-0.7-1.8-1c-0.6-0.4-1-0.8-1.3-1.4c-0.3-0.5-0.5-1.1-0.5-1.9
	c0-0.7,0.1-1.3,0.5-1.8c0.3-0.5,0.7-0.8,1.2-1.1c0.5-0.2,1.5-0.5,2.1-0.5c4.2-0.4,7.6,1.5,7.6,1.5v-4.2
	C101.2,411.4,97.8,411.1,94.9,411.7"/>
<path class="st2" d="M169.4,411.7c-1.3,0.3-2.4,0.8-3.5,1.4c-1,0.6-1.9,1.4-2.5,2.3c-0.7,1-1,2.2-1,3.6c0,0,0,2.2,0.8,3.6
	c0.6,1,1.6,2.1,2.5,2.8c0.9,0.7,2,1.3,3.1,1.9c1.1,0.5,2.2,1,3.1,1.6c1,0.6,1.7,1.2,2.4,1.9c0.6,0.7,0.9,1.6,0.9,2.6
	c0,0.8-0.4,1.5-1.2,2.1c-0.8,0.6-3.9,1.3-7.2,0.2c-0.8-0.3-4.1-1.9-4.1-1.9v5c1,0.5,1.8,0.9,2.7,1.2c0.9,0.3,2.9,0.9,5.3,0.9
	c3.3,0,5.7-0.8,7.2-2.4c1.6-1.6,2.4-3.6,2.4-6c0-1.1-0.2-2.1-0.6-2.9c-0.5-0.8-1-1.6-1.7-2.3c-0.7-0.7-1.4-1.3-2.3-1.8
	c-0.8-0.5-1.7-1-2.5-1.4c-0.7-0.4-1.4-0.7-2.1-1.1c-0.6-0.3-1.2-0.7-1.8-1c-0.5-0.4-1-0.8-1.3-1.4c-0.3-0.5-0.5-1.1-0.5-1.9
	c0-0.7,0.1-1.3,0.5-1.8c0.3-0.5,0.7-0.8,1.2-1.1c0.5-0.2,1.5-0.5,2.1-0.5c4.2-0.4,7.6,1.5,7.6,1.5v-4.2
	C175.7,411.4,172.2,411.1,169.4,411.7"/>
<path class="st2" d="M103.4,443.6c0.7,0,1.1,0.5,1.1,1.2v5.7c0,1-1.1,1.5-1.1,1.5l-3.3,1.8v-10.2H103.4z"/>
<path class="st2" d="M124,412.6c1,0,1.4,0.5,1.4,1.6v24.3c0,1.3-1.3,1.5-1.3,1.5h-6.3l-7.5-18.8h4c1.4,0,1.7,1,1.7,1l4.2,11.1v-20.7
	H124z"/>
<path class="st2" d="M179.3,404.2c0,1.3-0.3,1.8-1.5,1.8h-16.2v-0.1l2.4-3.1c0,0,0.6-0.9,2.2-0.9h8.8v-3.2c0-1.3,0.9-1.8,0.9-1.8
	l3.4-1.8V404.2z"/>
<path class="st2" d="M156.1,410.7h-3.8c-1.3,0-1.9,0.9-1.9,0.9l-0.6,0.8c-1.6-0.7-3.5-1.1-5.7-1.1c-3.8,0-6.6,1-8.5,3
	c-1.8,1.9-2.8,4.8-2.8,8.4V440h3.4l0,0.1h0.4c0.9,0,1.2-0.5,1.2-1.2v0V428h4.5c1,0,1.2-0.2,1.6-0.7c0.1,0,2.1-3.4,2.1-3.4h-8.1
	c0-1.2,0-2.4,0.1-3.4c0.1-1.1,0.4-1.9,0.8-2.7c0.4-0.8,1-1.4,1.8-1.8c0.8-0.4,2-0.7,3.5-0.7c1.4,0,2.5,0.2,3.4,0.6
	c0.9,0.4,1.5,0.9,1.9,1.6c0.4,0.7,0.7,1.5,0.8,2.5c0.1,0.9,0.2,2,0.2,3.2V440h3.4h0.2h0.3c0.8,0,1.2-0.5,1.2-1.2v-0.4v-15.7
	c0-3.3-0.8-6-2.3-7.9L156.1,410.7L156.1,410.7z"/>
<path class="st2" d="M78,414.3c-1.9-2-4.7-3-8.4-3c-3.8,0-6.6,1-8.5,3c-1.9,1.9-2.8,4.8-2.8,8.4V440h3.4h0.2h0.3
	c0.8,0,1.2-0.5,1.2-1.2v-0.5v-1.9V433v-9.1c0-1.2,0-2.4,0.1-3.4c0.1-1.1,0.4-1.9,0.8-2.7c0.4-0.8,1-1.4,1.9-1.8
	c0.8-0.4,2-0.7,3.5-0.7c1.4,0,2.5,0.2,3.3,0.6c0.8,0.4,1.4,0.9,1.8,1.7c0.4,0.7,0.7,1.5,0.8,2.5c0.1,0.9,0.2,2,0.2,3.2V440h3.4h0.1
	h0.3c0.8,0,1.2-0.5,1.2-1.2v-0.5v-15.7C80.9,419,79.9,416.2,78,414.3"/>
<path class="st3" d="M264.6,541.2c0-3.9-3.2-7.1-7.1-7.1c-3.9,0-7.1,3.2-7.1,7.1s3.2,7.1,7.1,7.1
	C261.4,548.3,264.6,545.2,264.6,541.2 M264.5,524.1c-2.5,0-4.8,0.5-7,1.5c-2.1-1-4.5-1.5-7-1.5c-9.5,0-17.1,7.7-17.1,17.1
	c0,9.5,7.7,17.1,17.1,17.1c2.5,0,4.8-0.5,7-1.5c2.1,1,4.5,1.5,7,1.5c9.5,0,17.1-7.7,17.1-17.1C281.6,531.8,273.9,524.1,264.5,524.1
	 M257.5,556.7c-8.6,0-15.5-6.9-15.5-15.5c0-8.6,6.9-15.5,15.5-15.5c8.5,0,15.5,6.9,15.5,15.5C272.9,549.8,266,556.7,257.5,556.7"/>
<polygon class="st4" points="311.4,552.5 311.4,537.8 305,547.4 304.9,547.4 298.6,537.9 298.6,552.5 293.7,552.5 293.7,529.9 
	299.1,529.9 305,539.5 310.9,529.9 316.3,529.9 316.3,552.5 "/>
<path class="st4" d="M331.1,552.9c-6.1,0-9.8-3.4-9.8-10v-12.9h5v12.8c0,3.7,1.8,5.6,4.9,5.6c3,0,4.9-1.8,4.9-5.4v-13h5v12.8
	C341,549.5,337.2,552.9,331.1,552.9"/>
<polygon class="st4" points="351,534.4 351,539.5 360.8,539.5 360.8,543.9 351,543.9 351,552.5 346,552.5 346,529.9 363.4,529.9 
	363.4,534.4 "/>
<path class="st4" d="M377.8,552.9c-7,0-11.9-4.9-11.9-11.6v-0.1c0-6.4,5-11.7,11.9-11.7c4.1,0,6.5,1.1,8.9,3.1l-3.1,3.8
	c-1.7-1.4-3.3-2.3-5.9-2.3c-3.6,0-6.5,3.2-6.5,7.1v0.1c0,4.1,2.8,7.2,6.9,7.2c1.8,0,3.4-0.5,4.7-1.4v-3.1h-5v-4.4h9.8v9.8
	C385.2,551.3,382,552.9,377.8,552.9"/>
<path class="st0" d="M16.7,543.5l-3.7-8.7H13l-3.7,8.7H16.7z M24.9,552.8h-4.3l-2.5-5.8H7.8l-2.4,5.8H1.1l10.1-22.9h3.7L24.9,552.8z
	"/>
<path class="st0" d="M64.6,552.8h-3.9v-8.9c0-3.2-1.1-4.7-3.3-4.7c-1.2,0-2.1,0.4-2.7,1.2c-0.6,0.8-0.9,1.9-0.9,3.2v9.1h-3.8v-8.9
	c0-3.2-1.1-4.7-3.3-4.7c-1.1,0-2,0.4-2.7,1.2c-0.7,0.8-1,2-1,3.4v8.9H39v-16.7h3.8v2.5h0.1c1.2-2,2.9-2.9,5.1-2.9c2.3,0,4,1,5,3
	c1.4-2,3.4-3,5.8-3c1.8,0,3.3,0.6,4.3,1.8c1,1.2,1.5,2.8,1.5,4.8V552.8z"/>
<path class="st0" d="M80.9,541.5c-0.7-1.8-2-2.7-3.9-2.7c-1.9,0-3.2,0.9-3.9,2.7H80.9z M84.7,550.1c-2,2.1-4.5,3.1-7.4,3.1
	c-2.7,0-4.8-0.8-6.4-2.5c-1.5-1.6-2.2-3.6-2.2-6.2c0-2.5,0.8-4.6,2.3-6.3c1.5-1.7,3.5-2.5,6-2.5c2.5,0,4.5,0.8,6,2.5
	c1.4,1.5,2.1,3.5,2.2,6H72.5v0.4c0,1.6,0.5,3,1.4,4c0.9,1,2.1,1.5,3.6,1.5c1.8,0,3.4-0.7,4.8-2.2L84.7,550.1z"/>
<path class="st0" d="M114.8,552.8h-3.9v-8.9c0-3.2-1.1-4.7-3.3-4.7c-1.2,0-2.1,0.4-2.7,1.2c-0.6,0.8-0.9,1.9-0.9,3.2v9.1H100v-8.9
	c0-3.2-1.1-4.7-3.3-4.7c-1.1,0-2,0.4-2.7,1.2c-0.7,0.8-1,2-1,3.4v8.9h-3.8v-16.7h3.8v2.5H93c1.2-2,2.9-2.9,5.1-2.9c2.3,0,4,1,5,3
	c1.4-2,3.4-3,5.8-3c1.8,0,3.3,0.6,4.3,1.8c1,1.2,1.5,2.8,1.5,4.8V552.8z"/>
<path class="st0" d="M128.6,549.9c1.4,0,2.6-0.5,3.5-1.5c0.9-1,1.3-2.3,1.3-3.9c0-1.5-0.4-2.8-1.3-3.9c-0.9-1-2-1.6-3.4-1.6
	c-1.4,0-2.6,0.5-3.6,1.6c-0.9,1.1-1.4,2.3-1.4,3.8c0,1.5,0.5,2.9,1.4,3.9C126,549.4,127.2,549.9,128.6,549.9 M123.5,552.8h-3.8
	v-24.5h0.1l3.8,1.2v9.3h0.1c1.5-2,3.4-3,5.8-3c2.2,0,4.1,0.8,5.6,2.4c1.5,1.6,2.3,3.7,2.3,6.3c0,2.6-0.8,4.7-2.3,6.3
	c-1.5,1.6-3.4,2.4-5.6,2.4c-2.6,0-4.5-1-5.9-3c0,0,0,0,0,0c0,0,0,0,0,0V552.8z"/>
<path class="st0" d="M152.8,541.5c-0.7-1.8-2-2.7-3.9-2.7c-1.9,0-3.2,0.9-3.9,2.7H152.8z M156.6,550.1c-2,2.1-4.5,3.1-7.4,3.1
	c-2.7,0-4.8-0.8-6.4-2.5c-1.5-1.6-2.2-3.6-2.2-6.2c0-2.5,0.8-4.6,2.2-6.3c1.5-1.7,3.5-2.5,6-2.5c2.5,0,4.5,0.8,6,2.5
	c1.4,1.5,2.1,3.5,2.2,6h-12.6v0.4c0,1.6,0.5,3,1.4,4c0.9,1,2.2,1.5,3.6,1.5c1.8,0,3.4-0.7,4.8-2.2L156.6,550.1z"/>
<path class="st0" d="M164.9,552.8h-3.8v-16.7h3.8v3.8h0.1c1.3-2.8,3.4-4.2,6.3-4.2v4.1c-4.2,0.1-6.4,2.6-6.4,7.5V552.8z"/>
<path class="st0" d="M192.8,549.8c1.5,0,2.7-0.5,3.6-1.5c0.9-1,1.4-2.3,1.4-3.8c0-1.5-0.5-2.8-1.4-3.8c-0.9-1-2.1-1.5-3.7-1.5
	c-1.5,0-2.7,0.5-3.6,1.5c-0.9,1-1.4,2.3-1.4,3.8c0,1.5,0.5,2.8,1.4,3.8C190.2,549.3,191.4,549.8,192.8,549.8 M201.8,544.5
	c0,2.5-0.8,4.6-2.5,6.3c-1.7,1.6-3.8,2.4-6.4,2.4c-2.6,0-4.7-0.8-6.4-2.4c-1.7-1.6-2.5-3.7-2.5-6.3c0-2.5,0.8-4.6,2.5-6.2
	c1.6-1.7,3.8-2.5,6.5-2.5c2.7,0,4.8,0.8,6.5,2.5C201,539.9,201.8,542,201.8,544.5"/>
<path class="st0" d="M210.9,559.6L210.9,559.6l-3.8-1.1v-19h-2.2v-3.4h2.2v-1.7c0-3.7,1.7-5.6,5.2-5.6c1,0,2.2,0.2,3.4,0.4v3.4
	c-1-0.3-1.8-0.5-2.4-0.5c-1.6,0-2.3,0.9-2.3,2.6v1.2h4.7v3.4h-4.7V559.6z"/>
<path class="st0" d="M12,587.8c0.8-0.5,1.2-1.2,1.2-2.1c0-0.9-0.4-1.6-1.2-2.1c-0.8-0.5-1.8-0.8-2.9-0.8c-1.1,0-2,0.3-2.7,0.8
	c-0.7,0.5-1,1.2-1,2.2c0,0.9,0.3,1.6,1,2.1c0.7,0.5,1.5,0.7,2.6,0.7C10.2,588.6,11.2,588.3,12,587.8 M17.1,591.2h-3.8v-1.5h-0.1
	c-1.4,1.3-3.1,2-5.1,2c-1.9,0-3.5-0.5-4.8-1.6c-1.4-1.1-2-2.5-2-4.3c0-1.8,0.7-3.3,2-4.4c1.3-1,2.8-1.5,4.8-1.5c2,0,3.7,0.6,5,1.9
	h0.1v-0.9c0-2.3-1.3-3.4-4-3.4c-1.8,0-3.5,0.6-4.9,1.8l-2.1-2.3c2.1-1.8,4.5-2.7,7.3-2.7c2.2,0,4,0.5,5.4,1.6c1.4,1.2,2.1,2.8,2.1,5
	V591.2z"/>
<path class="st0" d="M43,585.6c1-0.9,1.5-2.1,1.5-3.5c0-1.4-0.5-2.5-1.5-3.3c-1-0.9-2.2-1.3-3.5-1.3c-1.3,0-2.4,0.4-3.3,1.3
	c-0.9,0.9-1.3,2-1.3,3.3c0,1.4,0.4,2.5,1.3,3.5c0.9,0.9,2,1.4,3.4,1.4C40.9,586.9,42,586.5,43,585.6 M48.4,588.6
	c0,2.5-0.8,4.6-2.5,6.1c-1.7,1.5-3.9,2.3-6.6,2.3c-3,0-5.5-1.1-7.4-3.2l2.4-2.3c1.5,1.5,3.1,2.2,5,2.2c1.5,0,2.8-0.5,3.8-1.5
	c1-1,1.5-2.3,1.5-3.8v-1h-0.1c-1.4,2-3.4,2.9-5.9,2.9c-2.2,0-4-0.8-5.5-2.3c-1.5-1.5-2.3-3.5-2.3-5.8c0-2.3,0.8-4.2,2.3-5.7
	c1.5-1.5,3.4-2.3,5.5-2.3c2.4,0,4.4,1,5.9,2.9h0.1v-2.5h3.9V588.6z"/>
<polygon class="st0" points="53.6,591.2 57.4,591.2 57.4,567.8 53.6,566.6 "/>
<path class="st0" d="M70.7,588.1c1.5,0,2.7-0.5,3.6-1.5c1-1,1.4-2.3,1.4-3.8c0-1.5-0.4-2.8-1.4-3.8c-0.9-1-2.1-1.5-3.7-1.5
	c-1.5,0-2.7,0.5-3.6,1.5c-0.9,1-1.4,2.3-1.4,3.8c0,1.5,0.5,2.8,1.4,3.8C68,587.6,69.2,588.1,70.7,588.1 M79.6,582.8
	c0,2.5-0.8,4.6-2.5,6.3c-1.7,1.6-3.8,2.4-6.4,2.4c-2.6,0-4.7-0.8-6.4-2.4c-1.7-1.6-2.5-3.7-2.5-6.3c0-2.5,0.8-4.6,2.5-6.2
	c1.6-1.7,3.8-2.5,6.5-2.5c2.7,0,4.8,0.8,6.5,2.5C78.8,578.3,79.6,580.4,79.6,582.8"/>
<path class="st0" d="M92.7,588.3c1.4,0,2.6-0.5,3.5-1.5c0.9-1,1.3-2.3,1.3-3.9c0-1.5-0.5-2.8-1.3-3.9c-0.9-1-2-1.6-3.5-1.6
	c-1.4,0-2.6,0.5-3.6,1.6c-0.9,1-1.4,2.3-1.4,3.8c0,1.6,0.5,2.9,1.4,3.9C90.1,587.8,91.3,588.3,92.7,588.3 M87.6,591.2h-3.8v-24.5
	h0.1l3.8,1.2v9.3h0.1c1.5-2,3.4-3,5.8-3c2.2,0,4.1,0.8,5.6,2.4c1.5,1.6,2.3,3.7,2.3,6.3c0,2.6-0.8,4.7-2.3,6.3
	c-1.5,1.6-3.4,2.4-5.6,2.4c-2.6,0-4.5-1-5.9-3c0,0,0,0,0,0c0,0,0,0,0,0V591.2z"/>
<path class="st0" d="M115.1,587.8c0.8-0.5,1.2-1.2,1.2-2.1c0-0.9-0.4-1.6-1.2-2.1c-0.8-0.5-1.8-0.8-2.9-0.8c-1.1,0-2,0.3-2.7,0.8
	c-0.7,0.5-1,1.2-1,2.2c0,0.9,0.3,1.6,1,2.1c0.7,0.5,1.5,0.7,2.6,0.7C113.4,588.6,114.3,588.3,115.1,587.8 M120.3,591.2h-3.8v-1.5
	h-0.1c-1.4,1.3-3.1,2-5.1,2c-1.9,0-3.5-0.5-4.8-1.6c-1.4-1.1-2-2.5-2-4.3c0-1.8,0.7-3.3,2-4.4c1.2-1,2.8-1.5,4.8-1.5
	c2,0,3.7,0.6,5,1.9h0.1v-0.9c0-2.3-1.3-3.4-4-3.4c-1.9,0-3.5,0.6-4.9,1.8l-2.1-2.3c2-1.8,4.5-2.7,7.3-2.7c2.2,0,4,0.5,5.4,1.6
	c1.4,1.2,2.1,2.8,2.1,5V591.2z"/>
<polygon class="st0" points="125.4,591.2 129.3,591.2 129.3,567.8 125.4,566.6 "/>
<path class="st0" d="M160.9,591.2H157v-16.7h3.9V591.2z M161.1,571.8h-4.3V568h4.3V571.8z M149.2,598L149.2,598l-3.8-1.1v-19h-2.2
	v-3.4h2.2v-1.7c0-3.7,1.8-5.6,5.2-5.6c1,0,2.2,0.2,3.4,0.5v3.4c-1-0.3-1.8-0.4-2.4-0.4c-1.6,0-2.3,0.9-2.3,2.6v1.2h4.7v3.4h-4.7V598
	z"/>
<path class="st0" d="M181.7,591.2h-3.9v-8.9c0-1.3-0.2-2.4-0.7-3.2c-0.6-1-1.5-1.6-2.9-1.6c-1.2,0-2.1,0.4-2.9,1.2
	c-0.7,0.8-1.1,2-1.1,3.4v8.9h-3.8v-16.7h3.8v2.5h0.1c1.3-2,3.1-2.9,5.4-2.9c1.8,0,3.3,0.6,4.4,1.7c1.1,1.2,1.6,2.7,1.6,4.8V591.2z"
	/>
<path class="st0" d="M196.2,587.8c0.8-0.5,1.2-1.2,1.2-2.1c0-0.9-0.4-1.6-1.2-2.1c-0.8-0.5-1.8-0.8-2.9-0.8c-1.1,0-2,0.3-2.7,0.8
	c-0.7,0.5-1,1.2-1,2.2c0,0.9,0.3,1.6,1,2.1c0.7,0.5,1.5,0.7,2.6,0.7C194.4,588.6,195.4,588.3,196.2,587.8 M201.3,591.2h-3.8v-1.5
	h-0.1c-1.4,1.3-3.1,2-5.1,2c-1.9,0-3.5-0.5-4.8-1.6c-1.4-1.1-2-2.5-2-4.3c0-1.8,0.7-3.3,2-4.4c1.3-1,2.8-1.5,4.8-1.5
	c2,0,3.7,0.6,5,1.9h0.1v-0.9c0-2.3-1.3-3.4-4-3.4c-1.9,0-3.5,0.6-4.9,1.8l-2.1-2.3c2.1-1.8,4.5-2.7,7.3-2.7c2.2,0,4,0.5,5.4,1.6
	c1.4,1.2,2.1,2.8,2.1,5V591.2z"/>
<path class="st0" d="M221.6,591.2h-3.9v-8.9c0-1.3-0.2-2.4-0.7-3.2c-0.6-1-1.6-1.6-2.9-1.6c-1.2,0-2.1,0.4-2.9,1.2
	c-0.7,0.8-1.1,2-1.1,3.4v8.9h-3.8v-16.7h3.8v2.5h0.1c1.3-2,3.1-2.9,5.4-2.9c1.8,0,3.3,0.6,4.4,1.7c1.1,1.2,1.6,2.7,1.6,4.8V591.2z"
	/>
<path class="st0" d="M241.4,588.5c-1.9,2.1-4.3,3.1-6.9,3.1c-2.6,0-4.7-0.8-6.4-2.5c-1.6-1.7-2.5-3.7-2.5-6.2c0-2.5,0.8-4.5,2.4-6.2
	c1.6-1.7,3.7-2.5,6.4-2.5c2.7,0,5,1,6.9,3l-2.4,2.3c-1.3-1.3-2.8-2-4.4-2c-1.5,0-2.8,0.5-3.7,1.5c-0.9,1-1.4,2.3-1.4,3.9
	c0,1.5,0.5,2.8,1.4,3.8c0.9,1,2.1,1.5,3.6,1.5c1.6,0,3-0.7,4.4-2.1L241.4,588.5z"/>
<path class="st0" d="M249.5,591.2h-3.9v-16.7h3.9V591.2z M249.7,571.8h-4.2V568h4.2V571.8z"/>
<path class="st0" d="M264.5,587.8c0.8-0.5,1.2-1.2,1.2-2.1c0-0.9-0.4-1.6-1.2-2.1c-0.8-0.5-1.8-0.8-2.9-0.8c-1.1,0-2,0.3-2.7,0.8
	c-0.7,0.5-1,1.2-1,2.2c0,0.9,0.3,1.6,1,2.1c0.7,0.5,1.5,0.7,2.6,0.7C262.7,588.6,263.6,588.3,264.5,587.8 M269.6,591.2h-3.8v-1.5
	h-0.1c-1.4,1.3-3.1,2-5.1,2c-1.9,0-3.5-0.5-4.7-1.6c-1.4-1.1-2-2.5-2-4.3c0-1.8,0.7-3.3,2-4.4c1.2-1,2.8-1.5,4.8-1.5
	c2,0,3.7,0.6,5,1.9h0.1v-0.9c0-2.3-1.3-3.4-4-3.4c-1.9,0-3.5,0.6-4.9,1.8l-2.1-2.3c2-1.8,4.5-2.7,7.3-2.7c2.2,0,4,0.5,5.4,1.6
	c1.4,1.2,2.1,2.8,2.1,5V591.2z"/>
<polygon class="st0" points="274.7,591.2 278.6,591.2 278.6,567.8 274.7,566.6 "/>
<path class="st0" d="M304.8,585.6c1-0.9,1.5-2.1,1.5-3.5c0-1.4-0.5-2.5-1.5-3.3c-1-0.9-2.2-1.3-3.5-1.3c-1.3,0-2.5,0.4-3.3,1.3
	c-0.9,0.9-1.3,2-1.3,3.3c0,1.4,0.4,2.5,1.3,3.5c0.9,0.9,2,1.4,3.4,1.4C302.7,586.9,303.8,586.5,304.8,585.6 M310.2,588.6
	c0,2.5-0.8,4.6-2.5,6.1c-1.7,1.5-3.9,2.3-6.6,2.3c-3,0-5.5-1.1-7.4-3.2l2.4-2.3c1.5,1.5,3.1,2.2,5,2.2c1.5,0,2.7-0.5,3.8-1.5
	c1-1,1.5-2.3,1.5-3.8v-1h-0.1c-1.4,2-3.4,2.9-5.9,2.9c-2.2,0-4-0.8-5.5-2.3c-1.5-1.5-2.3-3.5-2.3-5.8c0-2.3,0.8-4.2,2.3-5.7
	c1.5-1.5,3.4-2.3,5.5-2.3c2.4,0,4.4,1,5.9,2.9h0.1v-2.5h3.9V588.6z"/>
<path class="st0" d="M319,591.2h-3.8v-16.7h3.8v3.8h0.1c1.3-2.8,3.3-4.2,6.3-4.2v4.1c-4.2,0.1-6.4,2.6-6.4,7.5V591.2z"/>
<path class="st0" d="M336.6,588.1c1.5,0,2.7-0.5,3.6-1.5c0.9-1,1.4-2.3,1.4-3.8c0-1.5-0.5-2.8-1.4-3.8c-0.9-1-2.1-1.5-3.7-1.5
	c-1.5,0-2.7,0.5-3.6,1.5c-0.9,1-1.4,2.3-1.4,3.8c0,1.5,0.5,2.8,1.4,3.8C334,587.6,335.2,588.1,336.6,588.1 M345.6,582.8
	c0,2.5-0.9,4.6-2.5,6.3c-1.7,1.6-3.8,2.4-6.4,2.4c-2.6,0-4.7-0.8-6.4-2.4c-1.7-1.6-2.5-3.7-2.5-6.3c0-2.5,0.8-4.6,2.5-6.2
	c1.6-1.7,3.8-2.5,6.4-2.5c2.7,0,4.9,0.8,6.5,2.5C344.7,578.3,345.6,580.4,345.6,582.8"/>
<path class="st0" d="M364.9,591.2H361v-2.6H361c-1.2,2-3,3-5.3,3c-1.8,0-3.2-0.5-4.3-1.6c-1.1-1.1-1.7-2.8-1.7-4.9v-10.5h3.9v9.6
	c0,1,0.3,1.9,0.8,2.7c0.7,0.9,1.6,1.3,2.7,1.3c2.6,0,3.9-2,3.9-5.9v-7.7h3.9V591.2z"/>
<path class="st0" d="M378.9,588.3c1.4,0,2.5-0.5,3.4-1.6c0.9-1.1,1.4-2.4,1.4-3.9c0-1.6-0.5-2.8-1.3-3.9c-0.9-1-2-1.5-3.4-1.5
	c-1.4,0-2.6,0.5-3.5,1.5c-0.9,1-1.4,2.3-1.4,3.9c0,1.6,0.5,2.9,1.4,3.9C376.3,587.8,377.5,588.3,378.9,588.3 M373.9,598
	c-1.7-0.4-2.9-0.8-3.8-1.1v-22.4h3.9v2.6h0.1c1.4-2,3.4-3,5.8-3c2.2,0,4.1,0.8,5.6,2.4c1.5,1.6,2.3,3.8,2.3,6.3
	c0,2.6-0.8,4.7-2.3,6.3c-1.5,1.6-3.4,2.4-5.6,2.4c-2.5,0-4.4-1-5.9-3h-0.1V598z"/>
<g>
</g>
<g>
</g>
<g>
</g>
<g>
</g>
<g>
</g>
<g>
</g>
<g>
</g>
<g>
</g>
<g>
</g>
<g>
</g>
<g>
</g>
<g>
</g>
<g>
</g>
<g>
</g>
<g>
</g>
</svg>
