<?xml version="1.0" encoding="UTF-8"?>
<svg width="120px" height="26px" viewBox="0 0 120 26" version="1.1" xmlns="http://www.w3.org/2000/svg" xmlns:xlink="http://www.w3.org/1999/xlink">
    <!-- Generator: Sketch 57.1 (83088) - https://sketch.com -->
    <title>Group 2</title>
    <desc>Created with Sketch.</desc>
    <g id="Symbols" stroke="none" stroke-width="1" fill="none" fill-rule="evenodd">
        <g id="TopBar" transform="translate(-60.000000, -28.000000)">
            <g id="Group-2" transform="translate(60.000000, 28.000000)">
                <g id="Group">
                    <path d="M3,5.93406593 L8.63233747,5.93406593 L8.63233747,5.93406593 C11.7096213,5.93406593 14.0425271,6.70054179 15.631125,8.23351648 C17.2197228,9.76649118 18.0140098,12.2241589 18.0140098,15.6065934 C18.0140098,18.8307854 17.2197228,21.209333 15.631125,22.7423077 C14.0425271,24.2752824 11.7096213,25.0417582 8.63233747,25.0417582 L3,25.0417582 C1.34314575,25.0417582 6.46995335e-16,23.6986125 0,22.0417582 L0,8.93406593 C2.41183085e-16,7.27721168 1.34314575,5.93406593 3,5.93406593 Z M7.91297601,20.7692308 C8.91209414,20.7692308 9.72136769,20.6258256 10.3408209,20.339011 C10.9602742,20.0521964 11.4348482,19.5379158 11.7645571,18.7961538 C12.0942661,18.0543919 12.2591181,16.9912157 12.2591181,15.6065934 C12.2591181,14.2021908 12.1092527,13.1093446 11.8095172,12.328022 C11.5097818,11.5466994 11.0451988,10.9978038 10.4157544,10.6813187 C9.78630999,10.3648336 8.95205887,10.2065934 7.91297601,10.2065934 L5.63499807,10.2065934 L5.63499807,20.7692308 L7.91297601,20.7692308 Z" id="D" fill="#FFFFFF"></path>
                    <path d="M9.99379193,0 L15.6261294,0 L15.6261294,0 C18.7034132,0 21.0363191,0.766475852 22.6249169,2.29945055 C24.2135147,3.83242525 25.0078017,6.29009298 25.0078017,9.67252747 C25.0078017,12.8967194 24.2135147,15.2752671 22.6249169,16.8082418 C21.0363191,18.3412165 18.7034132,19.1076923 15.6261294,19.1076923 L9.99379193,19.1076923 C8.33693768,19.1076923 6.99379193,17.7645466 6.99379193,16.1076923 L6.99379193,3 C6.99379193,1.34314575 8.33693768,-1.39730022e-16 9.99379193,0 Z M14.9067679,14.8351648 C15.9058861,14.8351648 16.7151596,14.6917597 17.3346129,14.4049451 C17.9540661,14.1181304 18.4286401,13.6038499 18.7583491,12.8620879 C19.0880581,12.120326 19.2529101,11.0571498 19.2529101,9.67252747 C19.2529101,8.26812485 19.1030446,7.17527863 18.8033092,6.39395604 C18.5035737,5.61263346 18.0389908,5.06373785 17.4095463,4.74725275 C16.7801019,4.43076765 15.9458508,4.27252747 14.9067679,4.27252747 L12.62879,4.27252747 L12.62879,14.8351648 L14.9067679,14.8351648 Z" id="D-Copy" fill="#61C5FF" opacity="0.799999952"></path>
                </g>
                <path d="M33.9501929,7.57028571 L39.741573,7.57028571 C41.1350909,7.57028571 42.1898019,7.95371045 42.9057377,8.72057143 C43.6216735,9.48743241 43.979636,10.4994223 43.979636,11.7565714 C43.979636,12.5737184 43.8038508,13.2965683 43.4522752,13.9251429 C43.1006996,14.5537174 42.5989129,15.0408554 41.9468999,15.3865714 C41.294887,15.7322874 40.5342166,15.9051429 39.664866,15.9051429 L36.5390549,15.9051429 L36.5390549,19.7142857 L33.9501929,19.7142857 L33.9501929,7.57028571 Z M39.1279169,13.8874286 C39.8566372,13.8874286 40.4127576,13.698859 40.7962946,13.3217143 C41.1798316,12.9445695 41.3715973,12.4228605 41.3715973,11.7565714 C41.3715973,11.0525679 41.192616,10.5151447 40.8346481,10.1442857 C40.4766802,9.77342672 39.9397364,9.588 39.2238007,9.588 L36.5390549,9.588 L36.5390549,13.8874286 L39.1279169,13.8874286 Z M48.7058345,7.57028571 L51.5439944,7.57028571 L56.2422994,19.7142857 L53.5575537,19.7142857 L52.3877716,16.7914286 L47.8428806,16.7914286 L46.6922752,19.7142857 L43.9883527,19.7142857 L48.7058345,7.57028571 Z M52.0042365,14.8302857 L50.1057377,9.94628571 L48.2264157,14.8302857 L52.0042365,14.8302857 Z M60.7575537,15.2262857 L56.3277232,7.57028571 L59.0316457,7.57028571 L62.061573,13.0577143 L65.0915004,7.57028571 L67.7762462,7.57028571 L63.3464157,15.2262857 L63.3464157,19.7142857 L60.7575537,19.7142857 L60.7575537,15.2262857 Z M69.7793454,7.57028571 L72.3873842,7.57028571 L76.011791,14.868 L79.6361977,7.57028571 L82.2250597,7.57028571 L82.2250597,19.7142857 L79.6361977,19.7142857 L79.6361977,11.8131429 L76.7596844,17.6211429 L75.2638975,17.6211429 L72.3682074,11.8131429 L72.3682074,19.7142857 L69.7793454,19.7142857 L69.7793454,7.57028571 Z M85.2828806,7.57028571 L94.1425416,7.57028571 L94.1425416,9.55028571 L87.8717425,9.55028571 L87.8717425,12.6617143 L93.4330016,12.6617143 L93.4330016,14.6228571 L87.8717425,14.6228571 L87.8717425,17.7531429 L94.1425416,17.7531429 L94.1425416,19.7142857 L85.2828806,19.7142857 L85.2828806,7.57028571 Z M96.8168273,7.57028571 L99.0605077,7.57028571 L104.909418,15.66 L104.909418,7.57028571 L107.49828,7.57028571 L107.49828,19.7142857 L105.2546,19.7142857 L99.4056893,11.6245714 L99.4056893,19.7142857 L96.8168273,19.7142857 L96.8168273,7.57028571 Z M113.586028,9.53142857 L109.789031,9.53142857 L109.789031,7.57028571 L119.952711,7.57028571 L119.952711,9.53142857 L116.17489,9.53142857 L116.17489,19.7142857 L113.586028,19.7142857 L113.586028,9.53142857 Z" id="PAYMENT" fill="#FFFFFF"></path>
            </g>
        </g>
    </g>
</svg>